<svg width="300" height="300" viewBox="0 0 300 300" fill="none" xmlns="http://www.w3.org/2000/svg">
<g filter="url(#filter0_i_1521_1228)">
<path d="M185.859 167.109L120.234 232.734C115.603 237.421 109.809 240.792 103.446 242.501C97.0828 244.211 90.3795 244.197 84.0234 242.461L56.6016 254.414C54.8914 255.164 52.9961 255.386 51.1588 255.052C49.3215 254.718 47.6258 253.843 46.2891 252.539V252.539C45.3169 251.582 44.661 250.35 44.4096 249.01C44.1582 247.669 44.3233 246.283 44.8828 245.039L57.5391 215.977C55.8034 209.62 55.7895 202.917 57.4987 196.554C59.2079 190.191 62.5788 184.397 67.2656 179.766L132.891 114.141" fill="#F5F4F1"/>
<path d="M185.859 167.109L120.234 232.734C115.603 237.421 109.809 240.792 103.446 242.501C97.0828 244.211 90.3795 244.197 84.0234 242.461L56.6016 254.414C54.8914 255.164 52.9961 255.386 51.1588 255.052C49.3215 254.718 47.6258 253.843 46.2891 252.539V252.539C45.3169 251.582 44.661 250.35 44.4096 249.01C44.1582 247.669 44.3233 246.283 44.8828 245.039L57.5391 215.977C55.8034 209.62 55.7895 202.917 57.4987 196.554C59.2079 190.191 62.5788 184.397 67.2656 179.766L132.891 114.141" stroke="#CA786D" stroke-width="12" stroke-linecap="round" stroke-linejoin="round"/>
<path opacity="0.2" d="M210.703 135.703L216.445 141.445C219.923 144.975 221.873 149.732 221.873 154.687C221.873 159.643 219.923 164.4 216.445 167.93L208.242 176.133C207.37 177.018 206.33 177.722 205.183 178.202C204.036 178.682 202.806 178.93 201.562 178.93C200.319 178.93 199.088 178.682 197.942 178.202C196.795 177.722 195.755 177.018 194.883 176.133L123.867 105.117C122.981 104.245 122.278 103.205 121.798 102.058C121.318 100.911 121.07 99.6806 121.07 98.4374C121.07 97.1942 121.318 95.9634 121.798 94.8166C122.278 93.6698 122.981 92.63 123.867 91.7577L132.07 83.5546C135.6 80.0764 140.357 78.1267 145.312 78.1267C150.268 78.1267 155.025 80.0764 158.555 83.5546L164.297 89.2968L196.641 56.953C209.297 44.2968 229.922 43.5936 242.812 55.8983C245.995 58.9081 248.542 62.5246 250.304 66.5345C252.067 70.5444 253.009 74.8665 253.074 79.2461C253.14 83.6257 252.328 87.9741 250.686 92.035C249.044 96.0958 246.606 99.7869 243.516 102.891L210.703 135.703Z" fill="#CA786D"/>
<path d="M210.703 135.703L216.445 141.445C219.923 144.975 221.873 149.732 221.873 154.687C221.873 159.643 219.923 164.4 216.445 167.93L208.242 176.133C207.37 177.018 206.33 177.722 205.183 178.202C204.036 178.682 202.806 178.93 201.562 178.93C200.319 178.93 199.088 178.682 197.942 178.202C196.795 177.722 195.755 177.018 194.883 176.133L123.867 105.117C122.981 104.245 122.278 103.205 121.798 102.058C121.318 100.911 121.07 99.6806 121.07 98.4374C121.07 97.1942 121.318 95.9634 121.798 94.8166C122.278 93.6698 122.981 92.63 123.867 91.7577L132.07 83.5546C135.6 80.0764 140.357 78.1267 145.312 78.1267C150.268 78.1267 155.025 80.0764 158.555 83.5546L164.297 89.2968L196.641 56.953C209.297 44.2968 229.922 43.5936 242.812 55.8983C245.995 58.9081 248.542 62.5246 250.304 66.5345C252.067 70.5444 253.009 74.8665 253.074 79.2461C253.14 83.6257 252.328 87.9741 250.686 92.035C249.044 96.0958 246.606 99.7869 243.516 102.891L210.703 135.703Z" stroke="#CA786D" stroke-width="12" stroke-linecap="round" stroke-linejoin="round"/>
</g>
<defs>
<filter id="filter0_i_1521_1228" x="0" y="0" width="300" height="304" filterUnits="userSpaceOnUse" color-interpolation-filters="sRGB">
<feFlood flood-opacity="0" result="BackgroundImageFix"/>
<feBlend mode="normal" in="SourceGraphic" in2="BackgroundImageFix" result="shape"/>
<feColorMatrix in="SourceAlpha" type="matrix" values="0 0 0 0 0 0 0 0 0 0 0 0 0 0 0 0 0 0 127 0" result="hardAlpha"/>
<feOffset dy="4"/>
<feGaussianBlur stdDeviation="2"/>
<feComposite in2="hardAlpha" operator="arithmetic" k2="-1" k3="1"/>
<feColorMatrix type="matrix" values="0 0 0 0 0 0 0 0 0 0 0 0 0 0 0 0 0 0 0.25 0"/>
<feBlend mode="normal" in2="shape" result="effect1_innerShadow_1521_1228"/>
</filter>
</defs>
</svg>
